<svg version="1.1" id="Layer_1" xmlns="http://www.w3.org/2000/svg" xmlns:xlink="http://www.w3.org/1999/xlink" x="0px" y="0px"
	 width="100%" viewBox="0 0 2266 620" enable-background="new 0 0 2266 620" xml:space="preserve">
<path fill="#FFFFFF" opacity="1.000000" stroke="none" 
	d="
M1461.000000,621.000000 
	C974.000000,621.000000 487.500000,621.000000 1.000000,621.000000 
	C1.000000,414.333344 1.000000,207.666672 1.000000,1.000000 
	C756.333313,1.000000 1511.666626,1.000000 2267.000000,1.000000 
	C2267.000000,207.666672 2267.000000,414.333344 2267.000000,621.000000 
	C1998.500000,621.000000 1730.000000,621.000000 1461.000000,621.000000 
M611.838867,309.500000 
	C611.838867,335.222534 611.838867,360.945038 611.838867,387.116547 
	C591.696472,381.874329 573.210388,374.621765 555.999634,364.293610 
	C514.114685,339.158417 492.620453,302.427765 492.983887,253.269943 
	C493.094757,238.273819 493.196198,223.272003 492.909607,208.280304 
	C492.666870,195.581528 482.964355,186.040924 470.755402,185.840073 
	C458.169586,185.633026 447.203888,194.569550 447.227570,206.706024 
	C447.275909,231.493683 446.762421,256.435791 449.269287,281.030029 
	C453.209442,319.685211 470.849457,352.256958 499.242096,378.861877 
	C526.605896,404.502747 559.497925,419.823029 595.133423,429.957764 
	C600.662903,431.530304 606.236145,432.948578 611.414307,434.337646 
	C611.414307,439.750031 611.511292,444.565857 611.396545,449.376587 
	C611.018494,465.227844 609.517517,480.954163 604.892700,496.195160 
	C598.513733,517.216614 588.722107,536.629028 569.609680,548.425842 
	C539.806152,566.821716 508.624146,566.553345 478.209198,549.534424 
	C464.002686,541.585144 455.563965,528.438049 453.673798,512.079163 
	C453.100861,507.120544 454.665741,501.622711 456.449432,496.816467 
	C457.250946,494.656738 460.996460,493.589569 463.406097,492.026642 
	C464.238922,494.060760 465.364807,496.026703 465.856445,498.140198 
	C468.795502,510.774780 481.150391,518.453247 493.621124,515.260986 
	C506.776093,511.893585 513.570862,499.604919 510.541992,484.658752 
	C504.958038,457.104248 477.496674,440.241211 450.320587,447.678925 
	C423.983765,454.886932 405.652527,480.886475 407.347443,509.588318 
	C409.562744,547.102234 428.077484,574.589722 460.681061,592.497437 
	C484.279633,605.459229 509.955536,609.314880 536.554016,606.874023 
	C568.244324,603.965942 595.621582,591.824585 617.078125,567.740906 
	C641.427185,540.410706 652.452820,507.619446 655.946594,471.849335 
	C656.928467,461.796600 657.299377,451.684174 657.924561,442.001434 
	C672.487183,442.001434 686.752014,442.355896 700.990967,441.900269 
	C714.805420,441.458160 728.597839,439.969208 741.635193,434.946014 
	C753.107910,430.525635 758.537903,418.496002 754.879456,406.699677 
	C751.459229,395.671570 739.404358,389.065582 727.946167,391.284729 
	C716.719666,393.458984 705.414795,395.788452 694.046204,396.514923 
	C682.176392,397.273376 670.189575,396.200836 657.849243,395.919495 
	C657.849243,393.296234 657.851562,391.652893 657.848938,390.009552 
	C657.761292,334.859100 657.816528,279.707886 657.518799,224.558533 
	C657.388611,200.441086 652.305481,177.311295 640.876038,155.896957 
	C621.965210,120.465477 591.357605,98.771011 555.094238,84.095535 
	C543.633484,79.457458 530.721924,85.523949 526.083984,96.733070 
	C521.328918,108.225357 526.441650,121.207336 537.859741,126.528259 
	C540.720215,127.861252 543.682068,128.977692 546.535767,130.324066 
	C565.289062,139.171768 582.208374,150.371475 594.456787,167.605652 
	C607.113586,185.414520 611.552490,205.676880 611.771484,227.016037 
	C612.050110,254.174728 611.838806,281.338440 611.838867,309.500000 
M386.519379,19.001841 
	C362.072418,12.590376 337.147491,9.552546 311.938324,9.534580 
	C287.918671,9.517462 264.095581,12.113323 240.762939,18.077366 
	C150.643051,41.112843 83.645088,93.727814 41.413971,176.575974 
	C11.553758,235.155151 2.436265,297.519501 14.049504,362.365265 
	C28.976845,445.716156 71.110046,512.105469 140.960541,560.199036 
	C195.886658,598.016907 257.098145,615.151367 323.735443,612.839478 
	C339.624969,612.288147 350.011414,598.705688 346.092224,583.792297 
	C343.063660,572.268005 334.075531,566.446594 319.627106,566.860168 
	C283.537628,567.893250 248.821243,561.554932 215.275085,548.185425 
	C105.708916,504.518585 39.367638,387.653595 58.912487,271.226715 
	C71.778069,194.587662 111.410324,135.106445 177.314835,93.891006 
	C226.841278,62.918098 281.283875,51.289577 339.284210,57.221539 
	C373.944122,60.766373 406.485779,71.473846 436.879242,88.674179 
	C449.032898,95.552193 462.866608,91.744972 469.308502,80.248810 
	C475.718262,68.810066 471.410004,55.126743 459.250488,48.273338 
	C436.530670,35.467907 412.512726,25.872952 386.519379,19.001841 
M1476.532715,185.834137 
	C1432.949097,186.577164 1396.463501,222.983719 1396.216187,266.575989 
	C1395.938232,315.570709 1396.064575,364.568695 1396.305420,413.563812 
	C1396.326538,417.839478 1397.735840,422.537872 1399.840332,426.288055 
	C1404.879028,435.267548 1415.485229,439.090973 1425.259399,436.332581 
	C1435.467163,433.451843 1441.989502,424.889282 1441.994263,414.171021 
	C1442.015259,366.341278 1442.033325,318.511536 1441.983643,270.681854 
	C1441.970459,257.915710 1446.226685,247.081314 1456.499390,239.279785 
	C1468.429199,230.219788 1481.712158,228.813965 1495.029907,235.418228 
	C1508.115479,241.907379 1515.346069,252.971161 1515.382202,267.860840 
	C1515.499634,316.190247 1515.419678,364.520142 1515.431274,412.849823 
	C1515.433960,423.922546 1521.110840,432.532013 1530.503906,435.831390 
	C1546.407349,441.417572 1561.535645,430.195709 1561.555298,412.636597 
	C1561.608887,364.640259 1561.555664,316.643829 1561.614746,268.647522 
	C1561.618652,265.511810 1561.831421,262.280182 1562.596069,259.257355 
	C1567.254883,240.840454 1584.081909,229.677170 1603.431396,231.968964 
	C1620.875977,234.035126 1634.787964,250.045547 1634.812622,268.394440 
	C1634.876221,315.724121 1634.832397,363.053955 1634.839722,410.383728 
	C1634.840088,412.382172 1634.827026,414.388092 1634.983032,416.377777 
	C1635.859741,427.556213 1645.118164,436.517944 1656.315918,437.084900 
	C1670.459961,437.801056 1680.824341,427.395813 1680.835693,412.296234 
	C1680.870239,366.633026 1680.876953,320.969757 1680.811646,275.306610 
	C1680.803589,269.657501 1680.579590,263.978333 1679.973022,258.365265 
	C1675.382202,215.888474 1635.844971,179.660675 1586.196777,186.531189 
	C1567.573730,189.108322 1551.854370,197.622360 1538.546875,210.971085 
	C1521.520386,194.409775 1501.510376,185.254150 1476.532715,185.834137 
M121.151085,408.439941 
	C121.151108,409.940155 121.140549,411.440491 121.152809,412.940613 
	C121.267738,427.004608 130.912094,437.110626 144.248215,437.146179 
	C157.423157,437.181305 167.000259,426.927277 167.001465,412.771576 
	C167.004364,378.440796 167.002258,344.110016 167.002457,309.779236 
	C167.002548,296.113586 166.819016,282.444916 167.043854,268.782959 
	C167.460129,243.489502 190.847763,225.955231 214.447067,233.057571 
	C230.570221,237.909927 240.815430,252.435684 240.828049,270.683655 
	C240.860809,318.013458 240.827988,365.343292 240.868500,412.673065 
	C240.870758,415.313568 240.899933,418.064423 241.596848,420.575073 
	C244.834305,432.238068 255.689331,438.810699 268.251617,436.962646 
	C278.725922,435.421814 286.982269,425.530640 286.992035,414.351074 
	C287.020630,381.520203 287.002136,348.689301 287.002380,315.858398 
	C287.002502,300.192902 286.816864,284.524689 287.046265,268.862518 
	C287.416992,243.555084 310.885895,225.891449 334.364319,233.036926 
	C350.732391,238.018433 360.816010,252.450867 360.828491,271.132904 
	C360.860229,318.629364 360.828064,366.125854 360.847595,413.622314 
	C360.852020,424.384216 366.596130,432.755035 376.009491,435.919159 
	C391.754517,441.211609 406.539276,430.000092 406.566803,412.598083 
	C406.625061,375.767578 406.624237,338.936859 406.564056,302.106354 
	C406.541718,288.449341 406.923523,274.750519 406.023895,261.143280 
	C402.292450,204.703995 339.725586,168.526978 288.983002,193.550110 
	C279.872620,198.042801 271.770538,204.580139 262.869110,210.391373 
	C263.111115,210.597382 262.590454,210.198730 262.120178,209.747482 
	C236.770035,185.423019 202.134842,178.412613 170.778305,192.765411 
	C138.114883,207.716400 121.580566,234.130783 121.252785,269.968048 
	C120.833641,315.794159 121.151123,361.626984 121.151085,408.439941 
M893.157654,265.830963 
	C866.439453,267.416656 845.433594,279.461334 830.382690,301.325439 
	C813.924683,325.233704 812.616150,352.057037 819.429260,378.983551 
	C831.800110,427.875671 882.220642,452.662537 928.385559,429.895477 
	C931.611206,428.304688 934.743896,426.525452 937.839661,424.876526 
	C946.773926,436.065247 955.737366,439.520294 966.098694,436.001434 
	C976.609192,432.431854 981.572876,424.031097 981.572876,409.812042 
	C981.572876,361.994476 981.600281,314.176880 981.526367,266.359406 
	C981.519714,262.052917 981.222900,257.680634 980.447266,253.451462 
	C968.298584,187.211517 892.747192,167.142197 846.856445,203.340210 
	C835.677124,212.158279 833.493896,226.399963 841.719910,236.847137 
	C849.791565,247.098145 863.889832,248.340973 875.018860,239.659210 
	C881.103271,234.912796 887.874634,232.166519 895.585571,231.610336 
	C920.243347,229.831787 939.000305,249.233810 935.256165,273.325500 
	C922.065186,267.595581 908.424744,264.568085 893.157654,265.830963 
M2199.904541,434.452240 
	C2210.027344,431.810242 2219.276123,427.394562 2227.237305,420.557098 
	C2236.562744,412.548218 2238.096191,399.209747 2230.968506,389.517426 
	C2223.661865,379.581635 2209.908936,376.619263 2199.962158,384.041534 
	C2190.908691,390.797241 2181.108887,391.847382 2170.635010,390.933075 
	C2155.014404,389.569489 2142.823730,380.207611 2139.850830,366.073639 
	C2138.102051,357.758759 2138.293213,349.035828 2137.572510,340.002899 
	C2140.526855,340.002899 2142.324219,340.002869 2144.121582,340.002869 
	C2173.783691,340.002869 2203.446045,340.004822 2233.108154,340.002075 
	C2248.327881,340.000641 2257.819092,330.619659 2257.841553,315.508057 
	C2257.865967,299.010590 2257.937012,282.512238 2257.787354,266.016113 
	C2257.746582,261.544800 2257.288330,257.024963 2256.499756,252.620880 
	C2249.241699,212.091660 2213.098145,184.858871 2174.056885,185.628021 
	C2128.792236,186.519760 2092.739746,221.444580 2092.463135,266.710022 
	C2092.280762,296.537720 2092.010742,326.374878 2092.539062,356.194336 
	C2093.138428,390.010254 2108.368408,415.127686 2139.520264,429.401825 
	C2158.611816,438.149902 2178.697754,439.168884 2199.904541,434.452240 
M1260.091797,382.474304 
	C1246.724365,370.967926 1248.730957,355.533691 1249.028687,340.001984 
	C1251.141235,340.001984 1252.933716,340.001984 1254.726074,340.001984 
	C1284.552002,340.001984 1314.378052,340.008972 1344.203979,339.998932 
	C1358.499146,339.994141 1368.068604,330.605408 1368.142700,316.335724 
	C1368.230103,299.506958 1368.210693,282.677277 1368.148560,265.848328 
	C1368.091919,250.491272 1364.014893,236.175247 1355.528442,223.432602 
	C1338.060913,197.204651 1313.369751,185.190842 1281.823975,185.717392 
	C1240.089355,186.414032 1203.401855,222.196350 1203.051880,263.866241 
	C1202.784546,295.689453 1202.545288,327.525330 1203.146118,359.339447 
	C1203.603271,383.545044 1213.326904,403.851532 1232.597290,419.022430 
	C1252.123901,434.394958 1274.699463,438.976532 1298.890381,436.557739 
	C1313.761475,435.070801 1327.422485,429.900604 1338.593506,419.656952 
	C1347.683716,411.321259 1348.326294,397.930237 1340.661011,388.506195 
	C1333.209106,379.344269 1320.074463,377.422424 1310.055176,384.027893 
	C1294.728271,394.132477 1275.563721,393.706451 1260.091797,382.474304 
M1832.704346,196.779724 
	C1776.342041,165.232468 1708.841064,204.672211 1708.835938,269.155090 
	C1708.833740,297.971466 1708.760498,326.788116 1708.859375,355.604156 
	C1708.936890,378.199951 1717.395874,397.496277 1733.251831,413.309937 
	C1757.257324,437.251099 1792.582153,443.647522 1824.231567,430.357788 
	C1854.088379,417.820740 1873.979858,387.444641 1873.999023,354.311279 
	C1874.015259,326.161163 1874.102173,298.010620 1873.975830,269.861084 
	C1873.833740,238.184692 1860.090088,213.996216 1832.704346,196.779724 
M2022.938965,422.352112 
	C2027.788452,433.385071 2038.014038,439.045166 2049.021729,436.789520 
	C2060.070801,434.525391 2067.156494,425.349182 2067.159668,413.186981 
	C2067.173096,364.365967 2067.259277,315.544708 2067.136963,266.723999 
	C2067.029785,224.026749 2031.628418,187.405655 1989.225830,185.852570 
	C1942.364624,184.136200 1903.002808,219.012329 1902.209717,264.634369 
	C1901.338013,314.773224 1901.952271,364.938965 1902.049438,415.092743 
	C1902.067505,424.445953 1908.500854,432.815002 1917.300415,435.916412 
	C1932.278687,441.195496 1947.798584,430.206909 1947.830322,414.160797 
	C1947.928101,364.841980 1947.676880,315.520569 1948.124390,266.205261 
	C1948.326904,243.903000 1971.208496,227.176086 1992.880005,232.497375 
	C2010.493042,236.822144 2021.386230,251.125641 2021.408936,270.303040 
	C2021.464722,317.457733 2021.403076,364.612579 2021.479858,411.767212 
	C2021.485229,415.049652 2022.240845,418.330841 2022.938965,422.352112 
M1009.835815,271.504578 
	C1009.835876,318.983521 1009.812439,366.462494 1009.851257,413.941406 
	C1009.862061,427.150574 1019.387756,436.966797 1032.159302,437.151947 
	C1045.873779,437.350769 1055.552856,427.139771 1055.561157,412.315186 
	C1055.587891,364.502930 1055.517822,316.690613 1055.595825,268.878479 
	C1055.630249,247.777573 1071.662598,231.632904 1092.336304,231.573395 
	C1112.742432,231.514664 1128.980957,248.094315 1128.993652,269.046234 
	C1129.010986,297.866852 1128.998047,326.687469 1128.998047,355.508087 
	C1128.998047,374.999481 1128.914429,394.491364 1129.027832,413.982086 
	C1129.103516,426.982483 1138.942017,436.947876 1151.566528,437.139160 
	C1164.975952,437.342285 1174.965454,427.074615 1174.981812,412.784393 
	C1175.035156,365.971771 1175.033447,319.158997 1174.958618,272.346436 
	C1174.950195,267.036530 1174.601196,261.696747 1173.972290,256.423035 
	C1168.717651,212.359421 1124.235596,179.516556 1080.482788,186.374512 
	C1037.816406,193.062164 1007.925049,230.613556 1009.835815,271.504578 
M587.827271,305.842682 
	C581.233398,297.172394 572.011353,294.812836 563.252014,299.554779 
	C555.328186,303.844452 551.682556,313.309509 554.672424,321.829468 
	C558.277100,332.101166 569.461426,337.095154 579.460938,332.898010 
	C589.586304,328.648010 593.354187,317.255890 587.827271,305.842682 
z"/>
<path fill="#09ADC2" opacity="1.000000" stroke="none" 
	d="
M611.838806,309.000000 
	C611.838806,281.338440 612.050110,254.174728 611.771484,227.016037 
	C611.552490,205.676880 607.113586,185.414520 594.456787,167.605652 
	C582.208374,150.371475 565.289062,139.171768 546.535767,130.324066 
	C543.682068,128.977692 540.720215,127.861252 537.859741,126.528259 
	C526.441650,121.207336 521.328918,108.225357 526.083984,96.733070 
	C530.721924,85.523949 543.633484,79.457458 555.094238,84.095535 
	C591.357605,98.771011 621.965210,120.465477 640.876038,155.896957 
	C652.305481,177.311295 657.388611,200.441086 657.518799,224.558533 
	C657.816528,279.707886 657.761292,334.859100 657.848938,390.009552 
	C657.851562,391.652893 657.849243,393.296234 657.849243,395.919495 
	C670.189575,396.200836 682.176392,397.273376 694.046204,396.514923 
	C705.414795,395.788452 716.719666,393.458984 727.946167,391.284729 
	C739.404358,389.065582 751.459229,395.671570 754.879456,406.699677 
	C758.537903,418.496002 753.107910,430.525635 741.635193,434.946014 
	C728.597839,439.969208 714.805420,441.458160 700.990967,441.900269 
	C686.752014,442.355896 672.487183,442.001434 657.924561,442.001434 
	C657.299377,451.684174 656.928467,461.796600 655.946594,471.849335 
	C652.452820,507.619446 641.427185,540.410706 617.078125,567.740906 
	C595.621582,591.824585 568.244324,603.965942 536.554016,606.874023 
	C509.955536,609.314880 484.279633,605.459229 460.681061,592.497437 
	C428.077484,574.589722 409.562744,547.102234 407.347443,509.588318 
	C405.652527,480.886475 423.983765,454.886932 450.320587,447.678925 
	C477.496674,440.241211 504.958038,457.104248 510.541992,484.658752 
	C513.570862,499.604919 506.776093,511.893585 493.621124,515.260986 
	C481.150391,518.453247 468.795502,510.774780 465.856445,498.140198 
	C465.364807,496.026703 464.238922,494.060760 463.406097,492.026672 
	C460.996460,493.589569 457.250946,494.656738 456.449432,496.816467 
	C454.665741,501.622711 453.100861,507.120544 453.673798,512.079163 
	C455.563965,528.438049 464.002686,541.585144 478.209198,549.534424 
	C508.624146,566.553345 539.806152,566.821716 569.609680,548.425842 
	C588.722107,536.629028 598.513733,517.216614 604.892700,496.195160 
	C609.517517,480.954163 611.018494,465.227844 611.396545,449.376587 
	C611.511292,444.565857 611.414307,439.750031 611.414307,434.337646 
	C606.236145,432.948578 600.662903,431.530304 595.133423,429.957764 
	C559.497925,419.823029 526.605896,404.502747 499.242096,378.861877 
	C470.849457,352.256958 453.209442,319.685211 449.269287,281.030029 
	C446.762421,256.435791 447.275909,231.493683 447.227570,206.706024 
	C447.203888,194.569550 458.169586,185.633026 470.755402,185.840073 
	C482.964355,186.040924 492.666870,195.581528 492.909607,208.280304 
	C493.196198,223.272003 493.094757,238.273819 492.983887,253.269943 
	C492.620453,302.427765 514.114685,339.158417 555.999634,364.293610 
	C573.210388,374.621765 591.696472,381.874329 611.838867,387.116547 
	C611.838867,360.945038 611.838867,335.222534 611.838806,309.000000 
z"/>
<path fill="#FEC108" opacity="1.000000" stroke="none" 
	d="
M386.921448,19.086880 
	C412.512726,25.872952 436.530670,35.467907 459.250488,48.273338 
	C471.410004,55.126743 475.718262,68.810066 469.308502,80.248810 
	C462.866608,91.744972 449.032898,95.552193 436.879242,88.674179 
	C406.485779,71.473846 373.944122,60.766373 339.284210,57.221539 
	C281.283875,51.289577 226.841278,62.918098 177.314835,93.891006 
	C111.410324,135.106445 71.778069,194.587662 58.912487,271.226715 
	C39.367638,387.653595 105.708916,504.518585 215.275085,548.185425 
	C248.821243,561.554932 283.537628,567.893250 319.627106,566.860168 
	C334.075531,566.446594 343.063660,572.268005 346.092224,583.792297 
	C350.011414,598.705688 339.624969,612.288147 323.735443,612.839478 
	C257.098145,615.151367 195.886658,598.016907 140.960541,560.199036 
	C71.110046,512.105469 28.976845,445.716156 14.049504,362.365265 
	C2.436265,297.519501 11.553758,235.155151 41.413971,176.575974 
	C83.645088,93.727814 150.643051,41.112843 240.762939,18.077366 
	C264.095581,12.113323 287.918671,9.517462 311.938324,9.534580 
	C337.147491,9.552546 362.072418,12.590376 386.921448,19.086880 
z"/>
<path fill="#DC1B65" opacity="1.000000" stroke="none" 
	d="
M1477.026001,185.834076 
	C1501.510376,185.254150 1521.520386,194.409775 1538.546875,210.971085 
	C1551.854370,197.622360 1567.573730,189.108322 1586.196777,186.531189 
	C1635.844971,179.660675 1675.382202,215.888474 1679.973022,258.365265 
	C1680.579590,263.978333 1680.803589,269.657501 1680.811646,275.306610 
	C1680.876953,320.969757 1680.870239,366.633026 1680.835693,412.296234 
	C1680.824341,427.395813 1670.459961,437.801056 1656.315918,437.084900 
	C1645.118164,436.517944 1635.859741,427.556213 1634.983032,416.377777 
	C1634.827026,414.388092 1634.840088,412.382172 1634.839722,410.383728 
	C1634.832397,363.053955 1634.876221,315.724121 1634.812622,268.394440 
	C1634.787964,250.045547 1620.875977,234.035126 1603.431396,231.968964 
	C1584.081909,229.677170 1567.254883,240.840454 1562.596069,259.257355 
	C1561.831421,262.280182 1561.618652,265.511810 1561.614746,268.647522 
	C1561.555664,316.643829 1561.608887,364.640259 1561.555298,412.636597 
	C1561.535645,430.195709 1546.407349,441.417572 1530.503906,435.831390 
	C1521.110840,432.532013 1515.433960,423.922546 1515.431274,412.849823 
	C1515.419678,364.520142 1515.499634,316.190247 1515.382202,267.860840 
	C1515.346069,252.971161 1508.115479,241.907379 1495.029907,235.418228 
	C1481.712158,228.813965 1468.429199,230.219788 1456.499390,239.279785 
	C1446.226685,247.081314 1441.970459,257.915710 1441.983643,270.681854 
	C1442.033325,318.511536 1442.015259,366.341278 1441.994263,414.171021 
	C1441.989502,424.889282 1435.467163,433.451843 1425.259399,436.332581 
	C1415.485229,439.090973 1404.879028,435.267548 1399.840332,426.288055 
	C1397.735840,422.537872 1396.326538,417.839478 1396.305420,413.563812 
	C1396.064575,364.568695 1395.938232,315.570709 1396.216187,266.575989 
	C1396.463501,222.983719 1432.949097,186.577164 1477.026001,185.834076 
z"/>
<path fill="#09ADC2" opacity="1.000000" stroke="none" 
	d="
M121.151123,407.948425 
	C121.151123,361.626984 120.833641,315.794159 121.252785,269.968048 
	C121.580566,234.130783 138.114883,207.716400 170.778305,192.765411 
	C202.134842,178.412613 236.770035,185.423019 262.120178,209.747482 
	C262.590454,210.198730 263.111115,210.597382 262.869110,210.391373 
	C271.770538,204.580139 279.872620,198.042801 288.983002,193.550110 
	C339.725586,168.526978 402.292450,204.703995 406.023895,261.143280 
	C406.923523,274.750519 406.541718,288.449341 406.564056,302.106354 
	C406.624237,338.936859 406.625061,375.767578 406.566803,412.598083 
	C406.539276,430.000092 391.754517,441.211609 376.009491,435.919159 
	C366.596130,432.755035 360.852020,424.384216 360.847595,413.622314 
	C360.828064,366.125854 360.860229,318.629364 360.828491,271.132904 
	C360.816010,252.450867 350.732391,238.018433 334.364319,233.036926 
	C310.885895,225.891449 287.416992,243.555084 287.046265,268.862518 
	C286.816864,284.524689 287.002502,300.192902 287.002380,315.858398 
	C287.002136,348.689301 287.020630,381.520203 286.992035,414.351074 
	C286.982269,425.530640 278.725922,435.421814 268.251617,436.962646 
	C255.689331,438.810699 244.834305,432.238068 241.596848,420.575073 
	C240.899933,418.064423 240.870758,415.313568 240.868500,412.673065 
	C240.827988,365.343292 240.860809,318.013458 240.828049,270.683655 
	C240.815430,252.435684 230.570221,237.909927 214.447067,233.057571 
	C190.847763,225.955231 167.460129,243.489502 167.043854,268.782959 
	C166.819016,282.444916 167.002548,296.113586 167.002457,309.779236 
	C167.002258,344.110016 167.004364,378.440796 167.001465,412.771576 
	C167.000259,426.927277 157.423157,437.181305 144.248215,437.146179 
	C130.912094,437.110626 121.267738,427.004608 121.152809,412.940613 
	C121.140549,411.440491 121.151108,409.940155 121.151123,407.948425 
z"/>
<path fill="#DC1B65" opacity="1.000000" stroke="none" 
	d="
M893.610352,265.819519 
	C908.424744,264.568085 922.065186,267.595581 935.256165,273.325500 
	C939.000305,249.233810 920.243347,229.831787 895.585571,231.610336 
	C887.874634,232.166519 881.103271,234.912796 875.018860,239.659210 
	C863.889832,248.340973 849.791565,247.098145 841.719910,236.847137 
	C833.493896,226.399963 835.677124,212.158279 846.856445,203.340210 
	C892.747192,167.142197 968.298584,187.211517 980.447266,253.451462 
	C981.222900,257.680634 981.519714,262.052917 981.526367,266.359406 
	C981.600281,314.176880 981.572876,361.994476 981.572876,409.812042 
	C981.572876,424.031097 976.609192,432.431854 966.098694,436.001434 
	C955.737366,439.520294 946.773926,436.065247 937.839661,424.876526 
	C934.743896,426.525452 931.611206,428.304688 928.385559,429.895477 
	C882.220642,452.662537 831.800110,427.875671 819.429260,378.983551 
	C812.616150,352.057037 813.924683,325.233704 830.382690,301.325439 
	C845.433594,279.461334 866.439453,267.416656 893.610352,265.819519 
M865.909180,373.429291 
	C875.154602,392.369080 892.558838,397.857483 910.660095,387.109772 
	C916.333069,383.741425 921.441589,379.364288 926.580566,375.169678 
	C933.283020,369.698822 937.855286,363.189758 935.906433,353.784729 
	C935.443115,351.548981 935.883057,349.134552 935.829712,346.804047 
	C935.422058,328.996674 922.383667,314.018311 905.470886,311.903564 
	C885.125305,309.359589 868.210754,319.284149 863.644104,337.423187 
	C860.684143,349.180450 861.061646,361.169220 865.909180,373.429291 
z"/>
<path fill="#DC1B65" opacity="1.000000" stroke="none" 
	d="
M2199.513184,434.589447 
	C2178.697754,439.168884 2158.611816,438.149902 2139.520264,429.401825 
	C2108.368408,415.127686 2093.138428,390.010254 2092.539062,356.194336 
	C2092.010742,326.374878 2092.280762,296.537720 2092.463135,266.710022 
	C2092.739746,221.444580 2128.792236,186.519760 2174.056885,185.628021 
	C2213.098145,184.858871 2249.241699,212.091660 2256.499756,252.620880 
	C2257.288330,257.024963 2257.746582,261.544800 2257.787354,266.016113 
	C2257.937012,282.512238 2257.865967,299.010590 2257.841553,315.508057 
	C2257.819092,330.619659 2248.327881,340.000641 2233.108154,340.002075 
	C2203.446045,340.004822 2173.783691,340.002869 2144.121582,340.002869 
	C2142.324219,340.002869 2140.526855,340.002899 2137.572510,340.002899 
	C2138.293213,349.035828 2138.102051,357.758759 2139.850830,366.073639 
	C2142.823730,380.207611 2155.014404,389.569489 2170.635010,390.933075 
	C2181.108887,391.847382 2190.908691,390.797241 2199.962158,384.041534 
	C2209.908936,376.619263 2223.661865,379.581635 2230.968506,389.517426 
	C2238.096191,399.209747 2236.562744,412.548218 2227.237305,420.557098 
	C2219.276123,427.394562 2210.027344,431.810242 2199.513184,434.589447 
M2210.054443,255.682404 
	C2203.697266,239.545105 2191.489746,231.318359 2174.275391,231.570572 
	C2158.490967,231.801834 2145.522705,240.516876 2140.559814,254.975433 
	C2136.196289,267.687653 2138.762207,280.872437 2138.171387,293.872772 
	C2163.146973,293.872772 2187.371582,293.872772 2212.806396,293.872772 
	C2211.937744,281.172485 2211.092773,268.819275 2210.054443,255.682404 
z"/>
<path fill="#DC1A65" opacity="1.000000" stroke="none" 
	d="
M1260.370850,382.701935 
	C1275.563721,393.706451 1294.728271,394.132477 1310.055176,384.027893 
	C1320.074463,377.422424 1333.209106,379.344269 1340.661011,388.506195 
	C1348.326294,397.930237 1347.683716,411.321259 1338.593506,419.656952 
	C1327.422485,429.900604 1313.761475,435.070801 1298.890381,436.557739 
	C1274.699463,438.976532 1252.123901,434.394958 1232.597290,419.022430 
	C1213.326904,403.851532 1203.603271,383.545044 1203.146118,359.339447 
	C1202.545288,327.525330 1202.784546,295.689453 1203.051880,263.866241 
	C1203.401855,222.196350 1240.089355,186.414032 1281.823975,185.717392 
	C1313.369751,185.190842 1338.060913,197.204651 1355.528442,223.432602 
	C1364.014893,236.175247 1368.091919,250.491272 1368.148560,265.848328 
	C1368.210693,282.677277 1368.230103,299.506958 1368.142700,316.335724 
	C1368.068604,330.605408 1358.499146,339.994141 1344.203979,339.998932 
	C1314.378052,340.008972 1284.552002,340.001984 1254.726074,340.001984 
	C1252.933716,340.001984 1251.141235,340.001984 1249.028687,340.001984 
	C1248.730957,355.533691 1246.724365,370.967926 1260.370850,382.701935 
M1271.500000,294.155029 
	C1288.260986,294.155029 1305.021973,294.155029 1322.155029,294.155029 
	C1322.155029,284.731995 1322.166016,275.933594 1322.152710,267.135223 
	C1322.126099,249.514801 1309.396729,234.275681 1292.818481,231.999557 
	C1272.533691,229.214508 1254.529785,238.852921 1250.602661,256.849182 
	C1247.999756,268.778229 1248.910278,281.473938 1248.230469,294.155090 
	C1256.544312,294.155090 1263.522095,294.155090 1271.500000,294.155029 
z"/>
<path fill="#DC1A65" opacity="1.000000" stroke="none" 
	d="
M1833.027832,196.949387 
	C1860.090088,213.996216 1873.833740,238.184692 1873.975830,269.861084 
	C1874.102173,298.010620 1874.015259,326.161163 1873.999023,354.311279 
	C1873.979858,387.444641 1854.088379,417.820740 1824.231567,430.357788 
	C1792.582153,443.647522 1757.257324,437.251099 1733.251831,413.309937 
	C1717.395874,397.496277 1708.936890,378.199951 1708.859375,355.604156 
	C1708.760498,326.788116 1708.833740,297.971466 1708.835938,269.155090 
	C1708.841064,204.672211 1776.342041,165.232468 1833.027832,196.949387 
M1815.555786,382.100494 
	C1823.995850,374.562744 1828.121094,365.081451 1828.133789,353.820038 
	C1828.165405,325.657990 1828.160278,297.495880 1828.121094,269.333862 
	C1828.117676,266.847778 1828.010864,264.311554 1827.524170,261.884430 
	C1823.608398,242.351761 1806.964478,230.007462 1787.192017,231.861786 
	C1768.516113,233.613266 1754.707153,249.449921 1754.606323,269.665222 
	C1754.467529,297.493347 1754.516968,325.322845 1754.592529,353.151459 
	C1754.635376,368.904816 1761.439087,380.922211 1775.784180,387.658783 
	C1789.670654,394.180023 1802.963867,392.152100 1815.555786,382.100494 
z"/>
<path fill="#DC1B65" opacity="1.000000" stroke="none" 
	d="
M2022.793213,421.982361 
	C2022.240845,418.330841 2021.485229,415.049652 2021.479858,411.767212 
	C2021.403076,364.612579 2021.464722,317.457733 2021.408936,270.303040 
	C2021.386230,251.125641 2010.493042,236.822144 1992.880005,232.497375 
	C1971.208496,227.176086 1948.326904,243.903000 1948.124390,266.205261 
	C1947.676880,315.520569 1947.928101,364.841980 1947.830322,414.160797 
	C1947.798584,430.206909 1932.278687,441.195496 1917.300415,435.916412 
	C1908.500854,432.815002 1902.067505,424.445953 1902.049438,415.092743 
	C1901.952271,364.938965 1901.338013,314.773224 1902.209717,264.634369 
	C1903.002808,219.012329 1942.364624,184.136200 1989.225830,185.852570 
	C2031.628418,187.405655 2067.029785,224.026749 2067.136963,266.723999 
	C2067.259277,315.544708 2067.173096,364.365967 2067.159668,413.186981 
	C2067.156494,425.349182 2060.070801,434.525391 2049.021729,436.789520 
	C2038.014038,439.045166 2027.788452,433.385071 2022.793213,421.982361 
z"/>
<path fill="#DC1A65" opacity="1.000000" stroke="none" 
	d="
M1009.835815,271.005920 
	C1007.925049,230.613556 1037.816406,193.062164 1080.482788,186.374512 
	C1124.235596,179.516556 1168.717651,212.359421 1173.972290,256.423035 
	C1174.601196,261.696747 1174.950195,267.036530 1174.958618,272.346436 
	C1175.033447,319.158997 1175.035156,365.971771 1174.981812,412.784393 
	C1174.965454,427.074615 1164.975952,437.342285 1151.566528,437.139160 
	C1138.942017,436.947876 1129.103516,426.982483 1129.027832,413.982086 
	C1128.914429,394.491364 1128.998047,374.999481 1128.998047,355.508087 
	C1128.998047,326.687469 1129.010986,297.866852 1128.993652,269.046234 
	C1128.980957,248.094315 1112.742432,231.514664 1092.336304,231.573395 
	C1071.662598,231.632904 1055.630249,247.777573 1055.595825,268.878479 
	C1055.517822,316.690613 1055.587891,364.502930 1055.561157,412.315186 
	C1055.552856,427.139771 1045.873779,437.350769 1032.159302,437.151947 
	C1019.387756,436.966797 1009.862061,427.150574 1009.851257,413.941406 
	C1009.812439,366.462494 1009.835876,318.983521 1009.835815,271.005920 
z"/>
<path fill="#0BAEC3" opacity="1.000000" stroke="none" 
	d="
M588.010254,306.169312 
	C593.354187,317.255890 589.586304,328.648010 579.460938,332.898010 
	C569.461426,337.095154 558.277100,332.101166 554.672424,321.829468 
	C551.682556,313.309509 555.328186,303.844452 563.252014,299.554779 
	C572.011353,294.812836 581.233398,297.172394 588.010254,306.169312 
z"/>
<path fill="#FFFEFE" opacity="1.000000" stroke="none" 
	d="
M865.764893,373.071411 
	C861.061646,361.169220 860.684143,349.180450 863.644104,337.423187 
	C868.210754,319.284149 885.125305,309.359589 905.470886,311.903564 
	C922.383667,314.018311 935.422058,328.996674 935.829712,346.804047 
	C935.883057,349.134552 935.443115,351.548981 935.906433,353.784729 
	C937.855286,363.189758 933.283020,369.698822 926.580566,375.169678 
	C921.441589,379.364288 916.333069,383.741425 910.660095,387.109772 
	C892.558838,397.857483 875.154602,392.369080 865.764893,373.071411 
z"/>
<path fill="#FFFEFE" opacity="1.000000" stroke="none" 
	d="
M2210.151123,256.074219 
	C2211.092773,268.819275 2211.937744,281.172485 2212.806396,293.872772 
	C2187.371582,293.872772 2163.146973,293.872772 2138.171387,293.872772 
	C2138.762207,280.872437 2136.196289,267.687653 2140.559814,254.975433 
	C2145.522705,240.516876 2158.490967,231.801834 2174.275391,231.570572 
	C2191.489746,231.318359 2203.697266,239.545105 2210.151123,256.074219 
z"/>
<path fill="#FFFFFF" opacity="1.000000" stroke="none" 
	d="
M1271.000000,294.155060 
	C1263.522095,294.155090 1256.544312,294.155090 1248.230469,294.155090 
	C1248.910278,281.473938 1247.999756,268.778229 1250.602661,256.849182 
	C1254.529785,238.852921 1272.533691,229.214508 1292.818481,231.999557 
	C1309.396729,234.275681 1322.126099,249.514801 1322.152710,267.135223 
	C1322.166016,275.933594 1322.155029,284.731995 1322.155029,294.155029 
	C1305.021973,294.155029 1288.260986,294.155029 1271.000000,294.155060 
z"/>
<path fill="#FFFFFF" opacity="1.000000" stroke="none" 
	d="
M1815.295166,382.349762 
	C1802.963867,392.152100 1789.670654,394.180023 1775.784180,387.658783 
	C1761.439087,380.922211 1754.635376,368.904816 1754.592529,353.151459 
	C1754.516968,325.322845 1754.467529,297.493347 1754.606323,269.665222 
	C1754.707153,249.449921 1768.516113,233.613266 1787.192017,231.861786 
	C1806.964478,230.007462 1823.608398,242.351761 1827.524170,261.884430 
	C1828.010864,264.311554 1828.117676,266.847778 1828.121094,269.333862 
	C1828.160278,297.495880 1828.165405,325.657990 1828.133789,353.820038 
	C1828.121094,365.081451 1823.995850,374.562744 1815.295166,382.349762 
z"/>
</svg>